<svg width="184" height="170" viewBox="0 0 184 170" fill="none" xmlns="http://www.w3.org/2000/svg">
<path d="M125.481 40.9794L118.199 25.0667L83.6456 40.8802L90.9281 56.7929L125.481 40.9794Z" fill="#FD7E14"/>
<path d="M80.463 42.3367L64.5503 49.6193L80.3638 84.1726L96.2766 76.8901L80.463 42.3367Z" fill="#FD7E14"/>
<path d="M16.8122 71.4669L61.3678 51.0758L68.4423 66.5339L40.4359 79.3511L52.0879 104.811L35.5387 112.385L16.8122 71.4669Z" fill="#FD7E14"/>
<path d="M48.2696 139.002L40.9871 123.089L75.5404 107.275L82.823 123.188L48.2696 139.002Z" fill="#FD7E14"/>
<path d="M78.723 105.819L94.6357 98.5363L110.449 133.09L94.5365 140.372L78.723 105.819Z" fill="#FD7E14"/>
<path d="M142.374 76.6886L97.8182 97.0797L104.893 112.538L132.899 99.7205L144.551 125.181L161.1 117.607L142.374 76.6886Z" fill="#FD7E14"/>
</svg>
