<svg width="113" height="15" viewBox="0 0 113 15" fill="none" xmlns="http://www.w3.org/2000/svg">
<path d="M9.072 14.054L6.12 14C4.824 14 3.75 14.048 2.898 14.144C2.838 14.072 2.808 13.97 2.808 13.838L2.826 13.694C3.654 13.562 4.2 13.394 4.464 13.19C4.728 12.974 4.902 12.626 4.986 12.146C5.154 11.258 5.238 9.77 5.238 7.682C5.238 5.594 5.214 4.136 5.166 3.308C5.118 2.48 5.058 1.964 4.986 1.76C4.686 1.7 4.32 1.67 3.888 1.67C2.88 1.67 2.094 1.802 1.53 2.066L0.738 4.046C0.462 4.046 0.258 3.998 0.126 3.902L0.414 1.112C0.414 0.979999 0.516 0.913999 0.72 0.913999L3.888 1.04H8.298L11.754 0.913999C11.97 0.913999 12.078 0.979999 12.078 1.112C11.886 2.168 11.79 3.134 11.79 4.01C11.694 4.058 11.574 4.082 11.43 4.082C11.286 4.082 11.172 4.058 11.088 4.01C10.872 2.822 10.752 2.174 10.728 2.066C10.128 1.802 9.306 1.67 8.262 1.67C7.794 1.67 7.416 1.7 7.128 1.76C7.092 1.868 7.044 2.366 6.984 3.254C6.936 4.142 6.912 5.282 6.912 6.674V9.896C6.912 11.228 7.008 12.386 7.2 13.37C7.752 13.454 8.376 13.496 9.072 13.496C9.108 13.592 9.126 13.7 9.126 13.82C9.126 13.928 9.108 14.006 9.072 14.054ZM12.9482 5.918L12.2462 5.936C12.1862 5.876 12.1562 5.786 12.1562 5.666L12.1922 5.45C13.0082 5.342 13.6742 5.174 14.1902 4.946C14.3582 4.874 14.4602 4.838 14.4962 4.838C14.6282 4.838 14.7782 5.078 14.9462 5.558C15.1142 6.026 15.2162 6.494 15.2522 6.962C16.1522 6.026 16.9682 5.318 17.7002 4.838C18.1802 4.838 18.5762 4.982 18.8882 5.27C19.2002 5.546 19.3562 5.894 19.3562 6.314C19.3562 6.794 18.9302 7.034 18.0782 7.034C17.8982 6.398 17.5922 6.08 17.1602 6.08C16.8722 6.08 16.2722 6.578 15.3602 7.574C15.2882 8.486 15.2522 9.938 15.2522 11.93C15.2522 12.926 15.3302 13.43 15.4862 13.442C15.7622 13.478 16.2482 13.496 16.9442 13.496C16.9802 13.58 16.9982 13.676 16.9982 13.784C16.9982 13.892 16.9802 13.982 16.9442 14.054L14.9282 14C13.9442 14 13.0742 14.048 12.3182 14.144C12.2582 14.072 12.2282 13.97 12.2282 13.838L12.2462 13.694C12.8822 13.574 13.2902 13.388 13.4702 13.136C13.6022 12.944 13.6982 12.638 13.7582 12.218C13.8182 11.786 13.8482 10.946 13.8482 9.698C13.8482 8.45 13.8422 7.76 13.8302 7.628C13.8302 7.496 13.8242 7.322 13.8122 7.106C13.8002 6.89 13.7762 6.728 13.7402 6.62C13.7042 6.512 13.6502 6.392 13.5782 6.26C13.4582 6.032 13.2482 5.918 12.9482 5.918ZM28.884 9.608C28.884 12.272 27.336 13.856 24.24 14.36C22.968 14.36 21.894 13.91 21.018 13.01C20.154 12.098 19.722 10.964 19.722 9.608C19.722 6.92 21.276 5.33 24.384 4.838C25.644 4.838 26.706 5.3 27.57 6.224C28.446 7.148 28.884 8.276 28.884 9.608ZM24.636 13.586C26.364 13.586 27.228 12.482 27.228 10.274C27.228 9.026 26.94 7.934 26.364 6.998C25.788 6.062 25.026 5.594 24.078 5.594C23.13 5.594 22.44 5.9 22.008 6.512C21.588 7.112 21.378 7.976 21.378 9.104C21.378 10.22 21.672 11.246 22.26 12.182C22.848 13.118 23.64 13.586 24.636 13.586ZM30.8256 5.918L30.1236 5.936C30.0756 5.876 30.0516 5.798 30.0516 5.702C30.0516 5.606 30.0636 5.522 30.0876 5.45C30.9036 5.342 31.5696 5.174 32.0856 4.946C32.2536 4.874 32.3556 4.838 32.3916 4.838C32.4996 4.838 32.6316 5.006 32.7876 5.342C32.9436 5.678 33.0756 6.05 33.1836 6.458C34.3956 5.774 35.5776 5.234 36.7296 4.838C37.4616 4.838 38.0256 5.132 38.4216 5.72C38.8176 6.296 39.0156 7.064 39.0156 8.024L38.9796 10.4C38.9796 12.404 39.0696 13.424 39.2496 13.46C39.4296 13.484 39.7656 13.496 40.2576 13.496C40.3056 13.58 40.3296 13.67 40.3296 13.766C40.3296 13.862 40.3056 13.958 40.2576 14.054L38.6016 14C37.6056 14 36.8136 14.048 36.2256 14.144C36.1656 14.072 36.1356 13.97 36.1356 13.838L36.1536 13.694C36.5016 13.61 36.7716 13.496 36.9636 13.352C37.1556 13.196 37.2756 13.052 37.3236 12.92C37.3836 12.776 37.4316 12.566 37.4676 12.29C37.5036 12.002 37.5216 11.45 37.5216 10.634V9.14C37.5216 8.3 37.4256 7.592 37.2336 7.016C37.1496 6.788 37.0536 6.62 36.9456 6.512C36.6816 6.224 36.3636 6.08 35.9916 6.08C35.6196 6.08 35.2476 6.152 34.8756 6.296C34.5036 6.44 34.2216 6.572 34.0296 6.692C33.8376 6.812 33.5676 6.992 33.2196 7.232C33.1716 8.18 33.1476 9.452 33.1476 11.048C33.1476 12.632 33.2256 13.436 33.3816 13.46C33.5496 13.484 33.8556 13.496 34.2996 13.496C34.3476 13.58 34.3716 13.67 34.3716 13.766C34.3716 13.862 34.3476 13.958 34.2996 14.054L32.7696 14C31.8576 14 31.0656 14.048 30.3936 14.144C30.3336 14.072 30.3036 13.97 30.3036 13.838L30.3216 13.694C30.6696 13.61 30.9396 13.496 31.1316 13.352C31.3236 13.196 31.4436 13.052 31.4916 12.92C31.5516 12.776 31.5996 12.518 31.6356 12.146C31.6836 11.762 31.7076 10.946 31.7076 9.698C31.7076 8.45 31.7016 7.76 31.6896 7.628C31.6896 7.484 31.6836 7.304 31.6716 7.088C31.6596 6.872 31.6356 6.71 31.5996 6.602C31.5636 6.494 31.5096 6.38 31.4376 6.26C31.3176 6.032 31.1136 5.918 30.8256 5.918ZM55.4946 7.52L55.5306 9.086C55.3626 9.134 55.2426 9.158 55.1706 9.158L54.9546 9.122L54.7566 7.952C54.3246 7.844 53.5746 7.79 52.5066 7.79C51.4506 7.79 50.7546 7.82 50.4186 7.88V9.968C50.4186 11.204 50.4666 12.326 50.5626 13.334C51.1146 13.406 51.8646 13.442 52.8126 13.442C52.8606 13.562 52.8846 13.682 52.8846 13.802C52.8846 13.91 52.8606 13.994 52.8126 14.054L49.6986 14C48.7866 14 47.9526 14.048 47.1966 14.144C47.1366 14.072 47.1066 13.97 47.1066 13.838L47.1246 13.694C47.7486 13.55 48.1566 13.328 48.3486 13.028C48.5046 12.788 48.6066 12.488 48.6546 12.128C48.7986 11.036 48.8706 9.668 48.8706 8.024C48.8706 3.848 48.7626 1.718 48.5466 1.634C48.3186 1.574 47.9226 1.544 47.3586 1.544C47.3346 1.46 47.3226 1.364 47.3226 1.256C47.3226 1.148 47.3346 1.058 47.3586 0.985999L50.0946 1.04H52.3986C52.3986 1.04 53.8146 0.997999 56.6466 0.913999C56.8626 0.913999 56.9706 0.979999 56.9706 1.112C56.9706 1.124 56.9526 1.268 56.9166 1.544C56.7846 2.408 56.6946 3.242 56.6466 4.046C56.5026 4.118 56.3706 4.154 56.2506 4.154C56.1426 4.154 56.0466 4.13 55.9626 4.082C55.8306 3.086 55.7166 2.408 55.6206 2.048C54.5286 1.796 53.5206 1.67 52.5966 1.67C51.6846 1.67 51.0306 1.694 50.6346 1.742C50.4906 2.294 50.4186 4.07 50.4186 7.07C50.7066 7.118 51.2166 7.142 51.9486 7.142C52.6806 7.142 53.2746 7.118 53.7306 7.07C54.1866 7.022 54.5106 6.926 54.7026 6.782C54.9066 6.626 55.0446 6.32 55.1166 5.864C55.3446 5.864 55.5306 5.906 55.6746 5.99C55.5546 6.674 55.4946 7.184 55.4946 7.52ZM66.9933 9.608C66.9933 12.272 65.4453 13.856 62.3493 14.36C61.0773 14.36 60.0033 13.91 59.1273 13.01C58.2633 12.098 57.8313 10.964 57.8313 9.608C57.8313 6.92 59.3853 5.33 62.4933 4.838C63.7533 4.838 64.8153 5.3 65.6793 6.224C66.5553 7.148 66.9933 8.276 66.9933 9.608ZM62.7453 13.586C64.4733 13.586 65.3373 12.482 65.3373 10.274C65.3373 9.026 65.0493 7.934 64.4733 6.998C63.8973 6.062 63.1353 5.594 62.1873 5.594C61.2393 5.594 60.5493 5.9 60.1173 6.512C59.6973 7.112 59.4873 7.976 59.4873 9.104C59.4873 10.22 59.7813 11.246 60.3693 12.182C60.9573 13.118 61.7493 13.586 62.7453 13.586ZM68.9169 5.918L68.2149 5.936C68.1549 5.876 68.1249 5.786 68.1249 5.666L68.1609 5.45C68.9769 5.342 69.6429 5.174 70.1589 4.946C70.3269 4.874 70.4289 4.838 70.4649 4.838C70.5969 4.838 70.7469 5.078 70.9149 5.558C71.0829 6.026 71.1849 6.494 71.2209 6.962C72.1209 6.026 72.9369 5.318 73.6689 4.838C74.1489 4.838 74.5449 4.982 74.8569 5.27C75.1689 5.546 75.3249 5.894 75.3249 6.314C75.3249 6.794 74.8989 7.034 74.0469 7.034C73.8669 6.398 73.5609 6.08 73.1289 6.08C72.8409 6.08 72.2409 6.578 71.3289 7.574C71.2569 8.486 71.2209 9.938 71.2209 11.93C71.2209 12.926 71.2989 13.43 71.4549 13.442C71.7309 13.478 72.2169 13.496 72.9129 13.496C72.9489 13.58 72.9669 13.676 72.9669 13.784C72.9669 13.892 72.9489 13.982 72.9129 14.054L70.8969 14C69.9129 14 69.0429 14.048 68.2869 14.144C68.2269 14.072 68.1969 13.97 68.1969 13.838L68.2149 13.694C68.8509 13.574 69.2589 13.388 69.4389 13.136C69.5709 12.944 69.6669 12.638 69.7269 12.218C69.7869 11.786 69.8169 10.946 69.8169 9.698C69.8169 8.45 69.8109 7.76 69.7989 7.628C69.7989 7.496 69.7929 7.322 69.7809 7.106C69.7689 6.89 69.7449 6.728 69.7089 6.62C69.6729 6.512 69.6189 6.392 69.5469 6.26C69.4269 6.032 69.2169 5.918 68.9169 5.918ZM78.6883 10.13C78.6883 12.122 79.0303 13.118 79.7143 13.118C80.2183 13.118 80.8723 12.95 81.6763 12.614C81.8563 12.674 81.9463 12.842 81.9463 13.118C81.0703 13.586 80.0623 14 78.9223 14.36C78.3583 14.36 77.9263 14.072 77.6263 13.496C77.3383 12.92 77.1943 12.146 77.1943 11.174V6.998C77.1943 6.29 77.1523 5.936 77.0683 5.936L75.7363 5.954C75.6523 5.93 75.6103 5.87 75.6103 5.774C75.6703 5.654 75.7243 5.438 75.7723 5.126H77.0503C77.1463 5.126 77.1943 4.916 77.1943 4.496L77.1763 2.966C77.6203 2.786 78.0763 2.414 78.5443 1.85C78.6883 1.85 78.7963 1.886 78.8683 1.958C78.7603 3.218 78.7063 4.274 78.7063 5.126C79.5823 5.126 80.4463 5.084 81.2983 5C81.3823 5.048 81.4243 5.12 81.4243 5.216C81.3523 5.336 81.2923 5.558 81.2443 5.882L78.6883 5.918V10.13ZM90.6106 4.712C90.7186 4.736 90.8086 4.808 90.8806 4.928C90.7726 5.744 90.7186 7.088 90.7186 8.96L90.7366 11.534C90.7366 12.614 91.0066 13.154 91.5466 13.154L92.1946 13.136C92.2426 13.22 92.2666 13.316 92.2666 13.424L92.2486 13.622C91.6606 13.718 91.2406 13.832 90.9886 13.964L90.5206 14.18C90.4606 14.216 90.3706 14.276 90.2506 14.36C89.9866 14.264 89.7646 14.054 89.5846 13.73C89.4046 13.394 89.3026 13.058 89.2786 12.722C88.2586 13.358 87.0886 13.904 85.7686 14.36C85.0006 14.36 84.4246 14.078 84.0406 13.514C83.6686 12.938 83.4826 12.158 83.4826 11.174V7.736C83.4826 6.92 83.4466 6.404 83.3746 6.188C83.3026 5.96 83.0926 5.81 82.7446 5.738L82.1506 5.666C82.1146 5.594 82.0966 5.516 82.0966 5.432L82.1506 5.216C82.3546 5.18 82.8166 5.102 83.5366 4.982L84.8146 4.712C84.9106 4.736 84.9946 4.808 85.0666 4.928C84.9706 5.588 84.9226 7.322 84.9226 10.13C84.9226 12.098 85.4506 13.082 86.5066 13.082C86.8786 13.082 87.2506 13.016 87.6226 12.884C88.0066 12.752 88.2946 12.626 88.4866 12.506C88.6786 12.374 88.9246 12.194 89.2246 11.966C89.2606 11.174 89.2786 10.604 89.2786 10.256V8.078C89.2786 7.346 89.2426 6.836 89.1706 6.548C89.1106 6.26 89.0146 6.068 88.8826 5.972C88.7626 5.864 88.5946 5.786 88.3786 5.738L87.7846 5.666L87.7306 5.432L87.7846 5.216C87.9046 5.192 88.1206 5.162 88.4326 5.126C88.7566 5.09 89.1826 5.018 89.7106 4.91C90.2386 4.802 90.5386 4.736 90.6106 4.712ZM93.931 5.918L93.229 5.936C93.181 5.876 93.157 5.798 93.157 5.702C93.157 5.606 93.169 5.522 93.193 5.45C94.009 5.342 94.675 5.174 95.191 4.946C95.359 4.874 95.461 4.838 95.497 4.838C95.605 4.838 95.737 5.006 95.893 5.342C96.049 5.678 96.181 6.05 96.289 6.458C97.501 5.774 98.683 5.234 99.835 4.838C100.567 4.838 101.131 5.132 101.527 5.72C101.923 6.296 102.121 7.064 102.121 8.024L102.085 10.4C102.085 12.404 102.175 13.424 102.355 13.46C102.535 13.484 102.871 13.496 103.363 13.496C103.411 13.58 103.435 13.67 103.435 13.766C103.435 13.862 103.411 13.958 103.363 14.054L101.707 14C100.711 14 99.919 14.048 99.331 14.144C99.271 14.072 99.241 13.97 99.241 13.838L99.259 13.694C99.607 13.61 99.877 13.496 100.069 13.352C100.261 13.196 100.381 13.052 100.429 12.92C100.489 12.776 100.537 12.566 100.573 12.29C100.609 12.002 100.627 11.45 100.627 10.634V9.14C100.627 8.3 100.531 7.592 100.339 7.016C100.255 6.788 100.159 6.62 100.051 6.512C99.787 6.224 99.469 6.08 99.097 6.08C98.725 6.08 98.353 6.152 97.981 6.296C97.609 6.44 97.327 6.572 97.135 6.692C96.943 6.812 96.673 6.992 96.325 7.232C96.277 8.18 96.253 9.452 96.253 11.048C96.253 12.632 96.331 13.436 96.487 13.46C96.655 13.484 96.961 13.496 97.405 13.496C97.453 13.58 97.477 13.67 97.477 13.766C97.477 13.862 97.453 13.958 97.405 14.054L95.875 14C94.963 14 94.171 14.048 93.499 14.144C93.439 14.072 93.409 13.97 93.409 13.838L93.427 13.694C93.775 13.61 94.045 13.496 94.237 13.352C94.429 13.196 94.549 13.052 94.597 12.92C94.657 12.776 94.705 12.518 94.741 12.146C94.789 11.762 94.813 10.946 94.813 9.698C94.813 8.45 94.807 7.76 94.795 7.628C94.795 7.484 94.789 7.304 94.777 7.088C94.765 6.872 94.741 6.71 94.705 6.602C94.669 6.494 94.615 6.38 94.543 6.26C94.423 6.032 94.219 5.918 93.931 5.918ZM109.463 13.064C110.447 13.064 111.317 12.8 112.073 12.272C112.241 12.332 112.337 12.458 112.361 12.65L110.417 14.018C110.129 14.246 109.487 14.36 108.491 14.36C107.495 14.36 106.649 13.916 105.953 13.028C105.257 12.128 104.909 10.994 104.909 9.626C104.909 8.258 105.287 7.178 106.043 6.386C106.799 5.594 107.699 5.078 108.743 4.838C109.655 4.838 110.459 5.144 111.155 5.756C111.575 6.116 111.869 6.584 112.037 7.16C112.073 7.304 112.241 7.382 112.541 7.394C112.613 7.478 112.649 7.568 112.649 7.664C112.649 7.748 112.637 7.838 112.613 7.934C110.501 8.426 108.425 8.768 106.385 8.96C106.385 10.496 106.811 11.648 107.663 12.416C108.143 12.848 108.743 13.064 109.463 13.064ZM110.597 7.574C110.657 7.538 110.687 7.496 110.687 7.448C110.687 7.388 110.609 7.22 110.453 6.944C110.309 6.656 110.051 6.356 109.679 6.044C109.307 5.72 108.917 5.558 108.509 5.558C108.101 5.558 107.801 5.618 107.609 5.738C106.937 6.194 106.553 7.022 106.457 8.222C107.105 8.222 107.843 8.156 108.671 8.024C109.499 7.88 110.141 7.73 110.597 7.574Z" fill="white"/>
</svg>
