<svg width="77" height="15" viewBox="0 0 77 15" fill="none" xmlns="http://www.w3.org/2000/svg">
<path d="M7.56 14.045L5.1 14C4.02 14 3.125 14.04 2.415 14.12C2.365 14.06 2.34 13.975 2.34 13.865L2.355 13.745C3.045 13.635 3.5 13.495 3.72 13.325C3.94 13.145 4.085 12.855 4.155 12.455C4.295 11.715 4.365 10.475 4.365 8.735C4.365 6.995 4.345 5.78 4.305 5.09C4.265 4.4 4.215 3.97 4.155 3.8C3.905 3.75 3.6 3.725 3.24 3.725C2.4 3.725 1.745 3.835 1.275 4.055L0.615 5.705C0.385 5.705 0.215 5.665 0.105 5.585L0.345 3.26C0.345 3.15 0.43 3.095 0.6 3.095L3.24 3.2H6.915L9.795 3.095C9.975 3.095 10.065 3.15 10.065 3.26C9.905 4.14 9.825 4.945 9.825 5.675C9.745 5.715 9.645 5.735 9.525 5.735C9.405 5.735 9.31 5.715 9.24 5.675C9.06 4.685 8.96 4.145 8.94 4.055C8.44 3.835 7.755 3.725 6.885 3.725C6.495 3.725 6.18 3.75 5.94 3.8C5.91 3.89 5.87 4.305 5.82 5.045C5.78 5.785 5.76 6.735 5.76 7.895V10.58C5.76 11.69 5.84 12.655 6 13.475C6.46 13.545 6.98 13.58 7.56 13.58C7.59 13.66 7.605 13.75 7.605 13.85C7.605 13.94 7.59 14.005 7.56 14.045ZM10.7902 7.265L10.2052 7.28C10.1552 7.23 10.1302 7.155 10.1302 7.055L10.1602 6.875C10.8402 6.785 11.3952 6.645 11.8252 6.455C11.9652 6.395 12.0502 6.365 12.0802 6.365C12.1902 6.365 12.3152 6.565 12.4552 6.965C12.5952 7.355 12.6802 7.745 12.7102 8.135C13.4602 7.355 14.1402 6.765 14.7502 6.365C15.1502 6.365 15.4802 6.485 15.7402 6.725C16.0002 6.955 16.1302 7.245 16.1302 7.595C16.1302 7.995 15.7752 8.195 15.0652 8.195C14.9152 7.665 14.6602 7.4 14.3002 7.4C14.0602 7.4 13.5602 7.815 12.8002 8.645C12.7402 9.405 12.7102 10.615 12.7102 12.275C12.7102 13.105 12.7752 13.525 12.9052 13.535C13.1352 13.565 13.5402 13.58 14.1202 13.58C14.1502 13.65 14.1652 13.73 14.1652 13.82C14.1652 13.91 14.1502 13.985 14.1202 14.045L12.4402 14C11.6202 14 10.8952 14.04 10.2652 14.12C10.2152 14.06 10.1902 13.975 10.1902 13.865L10.2052 13.745C10.7352 13.645 11.0752 13.49 11.2252 13.28C11.3352 13.12 11.4152 12.865 11.4652 12.515C11.5152 12.155 11.5402 11.455 11.5402 10.415C11.5402 9.375 11.5352 8.8 11.5252 8.69C11.5252 8.58 11.5202 8.435 11.5102 8.255C11.5002 8.075 11.4802 7.94 11.4502 7.85C11.4202 7.76 11.3752 7.66 11.3152 7.55C11.2152 7.36 11.0402 7.265 10.7902 7.265ZM24.07 10.34C24.07 12.56 22.78 13.88 20.2 14.3C19.14 14.3 18.245 13.925 17.515 13.175C16.795 12.415 16.435 11.47 16.435 10.34C16.435 8.1 17.73 6.775 20.32 6.365C21.37 6.365 22.255 6.75 22.975 7.52C23.705 8.29 24.07 9.23 24.07 10.34ZM20.53 13.655C21.97 13.655 22.69 12.735 22.69 10.895C22.69 9.855 22.45 8.945 21.97 8.165C21.49 7.385 20.855 6.995 20.065 6.995C19.275 6.995 18.7 7.25 18.34 7.76C17.99 8.26 17.815 8.98 17.815 9.92C17.815 10.85 18.06 11.705 18.55 12.485C19.04 13.265 19.7 13.655 20.53 13.655ZM25.688 7.265L25.103 7.28C25.063 7.23 25.043 7.165 25.043 7.085C25.043 7.005 25.053 6.935 25.073 6.875C25.753 6.785 26.308 6.645 26.738 6.455C26.878 6.395 26.963 6.365 26.993 6.365C27.083 6.365 27.193 6.505 27.323 6.785C27.453 7.065 27.563 7.375 27.653 7.715C28.663 7.145 29.648 6.695 30.608 6.365C31.218 6.365 31.688 6.61 32.018 7.1C32.348 7.58 32.513 8.22 32.513 9.02L32.483 11C32.483 12.67 32.558 13.52 32.708 13.55C32.858 13.57 33.138 13.58 33.548 13.58C33.588 13.65 33.608 13.725 33.608 13.805C33.608 13.885 33.588 13.965 33.548 14.045L32.168 14C31.338 14 30.678 14.04 30.188 14.12C30.138 14.06 30.113 13.975 30.113 13.865L30.128 13.745C30.418 13.675 30.643 13.58 30.803 13.46C30.963 13.33 31.063 13.21 31.103 13.1C31.153 12.98 31.193 12.805 31.223 12.575C31.253 12.335 31.268 11.875 31.268 11.195V9.95C31.268 9.25 31.188 8.66 31.028 8.18C30.958 7.99 30.878 7.85 30.788 7.76C30.568 7.52 30.303 7.4 29.993 7.4C29.683 7.4 29.373 7.46 29.063 7.58C28.753 7.7 28.518 7.81 28.358 7.91C28.198 8.01 27.973 8.16 27.683 8.36C27.643 9.15 27.623 10.21 27.623 11.54C27.623 12.86 27.688 13.53 27.818 13.55C27.958 13.57 28.213 13.58 28.583 13.58C28.623 13.65 28.643 13.725 28.643 13.805C28.643 13.885 28.623 13.965 28.583 14.045L27.308 14C26.548 14 25.888 14.04 25.328 14.12C25.278 14.06 25.253 13.975 25.253 13.865L25.268 13.745C25.558 13.675 25.783 13.58 25.943 13.46C26.103 13.33 26.203 13.21 26.243 13.1C26.293 12.98 26.333 12.765 26.363 12.455C26.403 12.135 26.423 11.455 26.423 10.415C26.423 9.375 26.418 8.8 26.408 8.69C26.408 8.57 26.403 8.42 26.393 8.24C26.383 8.06 26.363 7.925 26.333 7.835C26.303 7.745 26.258 7.65 26.198 7.55C26.098 7.36 25.928 7.265 25.688 7.265ZM38.7905 3.455C38.7805 3.405 38.7755 3.355 38.7755 3.305C38.7755 3.245 38.8005 3.17 38.8505 3.08C39.4905 3.16 40.2305 3.2 41.0705 3.2C41.9105 3.2 42.6455 3.185 43.2755 3.155C43.2955 3.215 43.3055 3.29 43.3055 3.38L43.2755 3.62C42.6955 3.62 42.2855 3.625 42.0455 3.635C42.0455 4.015 42.1655 4.63 42.4055 5.48C42.6555 6.32 42.9455 7.14 43.2755 7.94L45.1055 12.38L47.1155 7.94C47.5155 7.05 47.8605 6.185 48.1505 5.345C48.4405 4.495 48.5855 3.94 48.5855 3.68C48.4055 3.64 48.0255 3.62 47.4455 3.62C47.4255 3.55 47.4155 3.47 47.4155 3.38C47.4155 3.29 47.4255 3.215 47.4455 3.155C48.1055 3.185 48.6955 3.2 49.2155 3.2C49.7355 3.2 50.2455 3.16 50.7455 3.08C50.8055 3.14 50.8355 3.225 50.8355 3.335L50.8055 3.455C50.4155 3.575 50.1055 3.75 49.8755 3.98C49.5455 4.31 49.1605 4.94 48.7205 5.87C48.5005 6.34 48.3005 6.78 48.1205 7.19C47.9405 7.59 47.8255 7.84 47.7755 7.94L44.7455 14.585H44.4905L41.2505 6.8C40.6405 5.28 40.1605 4.32 39.8105 3.92C39.6605 3.75 39.3205 3.595 38.7905 3.455ZM54.6014 14.045L53.2514 14C52.5514 14 51.8914 14.04 51.2714 14.12C51.2114 14.04 51.1814 13.955 51.1814 13.865L51.2114 13.745C51.6414 13.645 51.9314 13.49 52.0814 13.28C52.1914 13.12 52.2764 12.93 52.3364 12.71C52.3964 12.48 52.4264 11.83 52.4264 10.76V9.32C52.4264 8.7 52.3964 8.27 52.3364 8.03C52.2864 7.79 52.2064 7.63 52.0964 7.55C51.9864 7.47 51.8414 7.42 51.6614 7.4L51.1064 7.355C51.0764 7.315 51.0614 7.25 51.0614 7.16L51.1064 6.965C51.6264 6.855 52.0464 6.745 52.3664 6.635C52.6964 6.515 53.0814 6.345 53.5214 6.125C53.6314 6.125 53.7064 6.185 53.7464 6.305C53.6264 6.985 53.5664 8.605 53.5664 11.165C53.5664 11.625 53.5814 12.135 53.6114 12.695C53.6514 13.245 53.7014 13.525 53.7614 13.535C53.9114 13.565 54.1914 13.58 54.6014 13.58C54.6314 13.65 54.6464 13.73 54.6464 13.82C54.6464 13.91 54.6314 13.985 54.6014 14.045ZM53.1914 4.415C52.8314 4.165 52.5764 3.835 52.4264 3.425C52.5464 3.285 52.7064 3.14 52.9064 2.99C53.1164 2.83 53.2964 2.72 53.4464 2.66C53.8264 2.94 54.0714 3.275 54.1814 3.665C53.9014 4.025 53.5714 4.275 53.1914 4.415ZM56.7071 6.605L57.9671 6.56C57.9971 6.61 58.0121 6.685 58.0121 6.785L57.9671 7.025C57.6571 7.025 57.4371 7.035 57.3071 7.055C57.3971 7.765 57.6321 8.54 58.0121 9.38L59.3321 12.275L60.3671 9.5C60.7271 8.53 60.9521 7.73 61.0421 7.1C60.7421 7.05 60.4221 7.025 60.0821 7.025C60.0621 6.955 60.0521 6.875 60.0521 6.785C60.0521 6.685 60.0621 6.61 60.0821 6.56C60.4821 6.59 60.9171 6.605 61.3871 6.605C61.8671 6.605 62.2871 6.575 62.6471 6.515C62.7171 6.625 62.7521 6.755 62.7521 6.905C62.5021 7.015 62.3221 7.125 62.2121 7.235C61.8721 7.575 61.5571 8.11 61.2671 8.84L59.0471 14.3H58.8221L56.6021 9.08C56.1921 8.09 55.8671 7.465 55.6271 7.205C55.4971 7.045 55.2971 6.925 55.0271 6.845C55.0171 6.815 55.0121 6.76 55.0121 6.68C55.0121 6.6 55.0421 6.525 55.1021 6.455C55.7921 6.555 56.3271 6.605 56.7071 6.605ZM66.8036 14.045L65.4536 14C64.7536 14 64.0936 14.04 63.4736 14.12C63.4136 14.04 63.3836 13.955 63.3836 13.865L63.4136 13.745C63.8436 13.645 64.1336 13.49 64.2836 13.28C64.3936 13.12 64.4786 12.93 64.5386 12.71C64.5986 12.48 64.6286 11.83 64.6286 10.76V9.32C64.6286 8.7 64.5986 8.27 64.5386 8.03C64.4886 7.79 64.4086 7.63 64.2986 7.55C64.1886 7.47 64.0436 7.42 63.8636 7.4L63.3086 7.355C63.2786 7.315 63.2636 7.25 63.2636 7.16L63.3086 6.965C63.8286 6.855 64.2486 6.745 64.5686 6.635C64.8986 6.515 65.2836 6.345 65.7236 6.125C65.8336 6.125 65.9086 6.185 65.9486 6.305C65.8286 6.985 65.7686 8.605 65.7686 11.165C65.7686 11.625 65.7836 12.135 65.8136 12.695C65.8536 13.245 65.9036 13.525 65.9636 13.535C66.1136 13.565 66.3936 13.58 66.8036 13.58C66.8336 13.65 66.8486 13.73 66.8486 13.82C66.8486 13.91 66.8336 13.985 66.8036 14.045ZM65.3936 4.415C65.0336 4.165 64.7786 3.835 64.6286 3.425C64.7486 3.285 64.9086 3.14 65.1086 2.99C65.3186 2.83 65.4986 2.72 65.6486 2.66C66.0286 2.94 66.2736 3.275 66.3836 3.665C66.1036 4.025 65.7736 4.275 65.3936 4.415ZM74.9543 10.265C74.9543 11.595 74.9793 12.38 75.0293 12.62C75.1093 13.07 75.3143 13.295 75.6443 13.295C75.7643 13.295 75.9443 13.29 76.1843 13.28C76.2243 13.35 76.2443 13.435 76.2443 13.535L76.2293 13.685C75.5493 13.805 75.0493 13.97 74.7293 14.18L74.5493 14.3C74.3993 14.3 74.2243 14.16 74.0243 13.88C73.8243 13.6 73.7243 13.285 73.7243 12.935C72.9443 13.435 72.0143 13.89 70.9343 14.3C70.2043 14.15 69.5543 13.7 68.9843 12.95C68.4143 12.19 68.1293 11.315 68.1293 10.325C68.1293 9.685 68.2543 9.115 68.5043 8.615C68.7543 8.105 69.0493 7.72 69.3893 7.46C69.7293 7.19 70.0993 6.965 70.4993 6.785C71.1193 6.505 71.6243 6.365 72.0143 6.365C72.0543 6.365 72.6343 6.445 73.7543 6.605V3.875C73.7543 2.965 73.6493 2.41 73.4393 2.21C73.3293 2.1 73.1843 2.035 73.0043 2.015L72.4643 1.955C72.4243 1.875 72.4043 1.815 72.4043 1.775L72.4643 1.58C72.8943 1.5 73.3093 1.395 73.7093 1.265C74.1093 1.115 74.5443 0.885 75.0143 0.574999C75.1343 0.574999 75.2143 0.624999 75.2543 0.724999C75.0543 1.485 74.9543 4.665 74.9543 10.265ZM69.3893 9.755C69.3893 10.665 69.6193 11.475 70.0793 12.185C70.5493 12.885 71.0693 13.235 71.6393 13.235C72.2193 13.235 72.9243 12.925 73.7543 12.305V8C73.7543 7.72 73.4143 7.485 72.7343 7.295C72.0543 7.095 71.5793 6.995 71.3093 6.995C70.8893 6.995 70.4643 7.285 70.0343 7.865C69.6043 8.435 69.3893 9.065 69.3893 9.755Z" fill="white"/>
</svg>
