<svg width="64" height="64" viewBox="0 0 64 64" fill="none" xmlns="http://www.w3.org/2000/svg">
<g clip-path="url(#clip0)">
<path d="M61.55 19.28C58.55 16.51 54.4 12.28 51.02 9.28L50.82 9.14C50.4872 8.87278 50.112 8.66321 49.71 8.52V8.52C41.56 7 3.62999 -0.0899995 2.88999 4.95522e-07C2.68264 0.0290406 2.48444 0.104219 2.30999 0.22L2.11999 0.370001C1.88603 0.607601 1.70834 0.894644 1.59999 1.21L1.54999 1.34V2.05V2.16C5.81999 14.05 22.68 53 26 62.14C26.2 62.76 26.58 63.94 27.29 64H27.45C27.83 64 29.45 61.86 29.45 61.86C29.45 61.86 58.41 26.74 61.34 23C61.7193 22.5393 62.0541 22.0438 62.34 21.52C62.413 21.1102 62.3786 20.6885 62.2401 20.2959C62.1017 19.9034 61.8639 19.5534 61.55 19.28V19.28ZM36.88 23.37L49.24 13.12L56.49 19.8L36.88 23.37ZM32.08 22.7L10.8 5.26L45.23 11.61L32.08 22.7ZM34 27.27L55.78 23.76L30.88 53.76L34 27.27ZM7.90999 7L30.3 26L27.06 53.78L7.90999 7Z" fill="#FF060A"/>
</g>
<defs>
<clipPath id="clip0">
<rect width="64" height="64" fill="white"/>
</clipPath>
</defs>
</svg>
